<mxfile host="app.diagrams.net" modified="2024-01-29T17:26:13.793Z" agent="Mozilla/5.0 (Macintosh; Intel Mac OS X 10_15_7) AppleWebKit/537.36 (KHTML, like Gecko) Chrome/119.0.0.0 Safari/537.36" etag="_sax_4JlsCRzUG9HzplG" version="23.0.2" type="device">
  <diagram name="Page-1" id="NJZH9LKFHjusUL-53peS">
    <mxGraphModel dx="2960" dy="830" grid="1" gridSize="10" guides="1" tooltips="1" connect="1" arrows="1" fold="1" page="1" pageScale="1" pageWidth="827" pageHeight="1169" math="0" shadow="0">
      <root>
        <mxCell id="0" />
        <mxCell id="1" parent="0" />
        <mxCell id="0Ut_8ADwXb8d6lRvvgoL-19" style="edgeStyle=orthogonalEdgeStyle;rounded=0;orthogonalLoop=1;jettySize=auto;html=1;exitX=1;exitY=0.5;exitDx=0;exitDy=0;exitPerimeter=0;entryX=0;entryY=0.5;entryDx=0;entryDy=0;" edge="1" parent="1" source="0Ut_8ADwXb8d6lRvvgoL-3" target="0Ut_8ADwXb8d6lRvvgoL-11">
          <mxGeometry relative="1" as="geometry">
            <Array as="points">
              <mxPoint x="-800" y="295" />
              <mxPoint x="-800" y="263" />
            </Array>
          </mxGeometry>
        </mxCell>
        <mxCell id="0Ut_8ADwXb8d6lRvvgoL-3" value="" style="sketch=0;aspect=fixed;pointerEvents=1;shadow=0;dashed=0;html=1;strokeColor=none;labelPosition=center;verticalLabelPosition=bottom;verticalAlign=top;align=center;fillColor=#00188D;shape=mxgraph.mscae.enterprise.android_phone" vertex="1" parent="1">
          <mxGeometry x="-840" y="270" width="30" height="50" as="geometry" />
        </mxCell>
        <mxCell id="0Ut_8ADwXb8d6lRvvgoL-5" value="" style="shape=datastore;whiteSpace=wrap;html=1;" vertex="1" parent="1">
          <mxGeometry x="-220" y="170" width="30" height="30" as="geometry" />
        </mxCell>
        <mxCell id="0Ut_8ADwXb8d6lRvvgoL-8" value="" style="rounded=0;whiteSpace=wrap;html=1;" vertex="1" parent="1">
          <mxGeometry x="-323" y="150" width="70" height="50" as="geometry" />
        </mxCell>
        <mxCell id="0Ut_8ADwXb8d6lRvvgoL-9" style="edgeStyle=orthogonalEdgeStyle;rounded=0;orthogonalLoop=1;jettySize=auto;html=1;exitX=1;exitY=0.5;exitDx=0;exitDy=0;entryX=0;entryY=0.5;entryDx=0;entryDy=0;" edge="1" parent="1" source="0Ut_8ADwXb8d6lRvvgoL-7" target="0Ut_8ADwXb8d6lRvvgoL-5">
          <mxGeometry relative="1" as="geometry" />
        </mxCell>
        <mxCell id="0Ut_8ADwXb8d6lRvvgoL-7" value="&lt;font style=&quot;font-size: 10px;&quot;&gt;Authentication Service&lt;/font&gt;" style="rounded=0;whiteSpace=wrap;html=1;" vertex="1" parent="1">
          <mxGeometry x="-330" y="160" width="70" height="50" as="geometry" />
        </mxCell>
        <mxCell id="0Ut_8ADwXb8d6lRvvgoL-11" value="&lt;font style=&quot;font-size: 10px;&quot;&gt;Load&lt;br&gt;Balancer&lt;/font&gt;" style="rounded=0;whiteSpace=wrap;html=1;" vertex="1" parent="1">
          <mxGeometry x="-660" y="195" width="50" height="135" as="geometry" />
        </mxCell>
        <mxCell id="0Ut_8ADwXb8d6lRvvgoL-14" value="" style="rounded=0;whiteSpace=wrap;html=1;" vertex="1" parent="1">
          <mxGeometry x="-510" y="190" width="50" height="135" as="geometry" />
        </mxCell>
        <mxCell id="0Ut_8ADwXb8d6lRvvgoL-12" value="&lt;span style=&quot;font-size: 10px;&quot;&gt;Gateway&lt;/span&gt;" style="rounded=0;whiteSpace=wrap;html=1;" vertex="1" parent="1">
          <mxGeometry x="-520" y="200" width="50" height="135" as="geometry" />
        </mxCell>
        <mxCell id="0Ut_8ADwXb8d6lRvvgoL-15" value="" style="rounded=0;whiteSpace=wrap;html=1;" vertex="1" parent="1">
          <mxGeometry x="-319.5" y="240" width="70" height="50" as="geometry" />
        </mxCell>
        <mxCell id="0Ut_8ADwXb8d6lRvvgoL-18" style="edgeStyle=orthogonalEdgeStyle;rounded=0;orthogonalLoop=1;jettySize=auto;html=1;exitX=1;exitY=0.5;exitDx=0;exitDy=0;entryX=0;entryY=0.5;entryDx=0;entryDy=0;" edge="1" parent="1" source="0Ut_8ADwXb8d6lRvvgoL-16" target="0Ut_8ADwXb8d6lRvvgoL-17">
          <mxGeometry relative="1" as="geometry" />
        </mxCell>
        <mxCell id="0Ut_8ADwXb8d6lRvvgoL-16" value="&lt;font style=&quot;font-size: 10px;&quot;&gt;Profile Service&lt;/font&gt;" style="rounded=0;whiteSpace=wrap;html=1;" vertex="1" parent="1">
          <mxGeometry x="-326.5" y="250" width="70" height="50" as="geometry" />
        </mxCell>
        <mxCell id="0Ut_8ADwXb8d6lRvvgoL-32" style="edgeStyle=orthogonalEdgeStyle;rounded=0;orthogonalLoop=1;jettySize=auto;html=1;exitX=1;exitY=0.5;exitDx=0;exitDy=0;entryX=0;entryY=0.5;entryDx=0;entryDy=0;" edge="1" parent="1" source="0Ut_8ADwXb8d6lRvvgoL-17" target="0Ut_8ADwXb8d6lRvvgoL-26">
          <mxGeometry relative="1" as="geometry" />
        </mxCell>
        <mxCell id="0Ut_8ADwXb8d6lRvvgoL-17" value="" style="shape=datastore;whiteSpace=wrap;html=1;" vertex="1" parent="1">
          <mxGeometry x="-220" y="260" width="30" height="30" as="geometry" />
        </mxCell>
        <mxCell id="0Ut_8ADwXb8d6lRvvgoL-22" value="Username, Token" style="text;html=1;strokeColor=none;fillColor=none;align=center;verticalAlign=middle;whiteSpace=wrap;rounded=0;" vertex="1" parent="1">
          <mxGeometry x="-780" y="257.5" width="100" height="30" as="geometry" />
        </mxCell>
        <mxCell id="0Ut_8ADwXb8d6lRvvgoL-23" value="" style="rounded=0;whiteSpace=wrap;html=1;" vertex="1" parent="1">
          <mxGeometry x="-153" y="320" width="70" height="50" as="geometry" />
        </mxCell>
        <mxCell id="0Ut_8ADwXb8d6lRvvgoL-33" style="edgeStyle=orthogonalEdgeStyle;rounded=0;orthogonalLoop=1;jettySize=auto;html=1;exitX=0.5;exitY=0;exitDx=0;exitDy=0;entryX=0.5;entryY=1;entryDx=0;entryDy=0;" edge="1" parent="1" source="0Ut_8ADwXb8d6lRvvgoL-24" target="0Ut_8ADwXb8d6lRvvgoL-26">
          <mxGeometry relative="1" as="geometry" />
        </mxCell>
        <mxCell id="0Ut_8ADwXb8d6lRvvgoL-24" value="&lt;font style=&quot;font-size: 10px;&quot;&gt;Image Service&lt;/font&gt;" style="rounded=0;whiteSpace=wrap;html=1;" vertex="1" parent="1">
          <mxGeometry x="-160" y="330" width="70" height="50" as="geometry" />
        </mxCell>
        <mxCell id="0Ut_8ADwXb8d6lRvvgoL-26" value="&lt;font style=&quot;font-size: 10px;&quot;&gt;Distributed&lt;br&gt;File&lt;br&gt;System&lt;br&gt;&lt;/font&gt;" style="rounded=0;whiteSpace=wrap;html=1;" vertex="1" parent="1">
          <mxGeometry x="-160" y="250" width="60" height="50" as="geometry" />
        </mxCell>
        <mxCell id="0Ut_8ADwXb8d6lRvvgoL-34" value="" style="shape=datastore;whiteSpace=wrap;html=1;" vertex="1" parent="1">
          <mxGeometry x="-216.5" y="420" width="30" height="30" as="geometry" />
        </mxCell>
        <mxCell id="0Ut_8ADwXb8d6lRvvgoL-35" value="" style="rounded=0;whiteSpace=wrap;html=1;" vertex="1" parent="1">
          <mxGeometry x="-319.5" y="400" width="70" height="50" as="geometry" />
        </mxCell>
        <mxCell id="0Ut_8ADwXb8d6lRvvgoL-36" style="edgeStyle=orthogonalEdgeStyle;rounded=0;orthogonalLoop=1;jettySize=auto;html=1;exitX=1;exitY=0.5;exitDx=0;exitDy=0;entryX=0;entryY=0.5;entryDx=0;entryDy=0;" edge="1" parent="1" source="0Ut_8ADwXb8d6lRvvgoL-37" target="0Ut_8ADwXb8d6lRvvgoL-34">
          <mxGeometry relative="1" as="geometry" />
        </mxCell>
        <mxCell id="0Ut_8ADwXb8d6lRvvgoL-37" value="&lt;font style=&quot;font-size: 10px;&quot;&gt;Message Service&lt;/font&gt;" style="rounded=0;whiteSpace=wrap;html=1;" vertex="1" parent="1">
          <mxGeometry x="-326.5" y="410" width="70" height="50" as="geometry" />
        </mxCell>
      </root>
    </mxGraphModel>
  </diagram>
</mxfile>
